<svg xmlns="http://www.w3.org/2000/svg" xmlns:xlink="http://www.w3.org/1999/xlink" viewBox="0 0 828.98 210.41"><defs><style>.cls-1{fill:#fff;}.cls-2{fill:#b3b3b3;}.cls-3{fill:url(#Gradiente_sem_nome_13);}.cls-4{fill:#e16162;}.cls-5{fill:url(#Gradiente_sem_nome_12);}</style><linearGradient id="Gradiente_sem_nome_13" x1="105.2" y1="98.91" x2="105.2" y2="17.4" gradientUnits="userSpaceOnUse"><stop offset="0" stop-color="#f3754f"/><stop offset="1" stop-color="#fca311"/></linearGradient><linearGradient id="Gradiente_sem_nome_12" x1="105.2" y1="210.41" x2="105.2" gradientUnits="userSpaceOnUse"><stop offset="0" stop-color="#ca516c"/><stop offset="1" stop-color="#fca311"/></linearGradient></defs><g id="Camada_2" data-name="Camada 2"><g id="Camada_1-2" data-name="Camada 1"><path class="cls-1" d="M287.05,47.77h11.86l28.32,65.11H311.05l-5.61-13.8H280.15l-5.43,13.8H258.9Zm5.51,18.94-7.91,20.23h15.91Z"/><path class="cls-1" d="M352.71,47.77h14.34v27l25.29-27H411.1L382.14,78l31.45,34.86h-20L367.05,82v30.9H352.71Z"/><path class="cls-1" d="M436.76,47.77h14.35v65.11H436.76Z"/><path class="cls-1" d="M498.56,85.11,474.1,47.77h17.84l13.79,24.37,14.62-24.37h17L512.9,85.11v27.77H498.56Z"/><path class="cls-1" d="M557.05,80.32a36.71,36.71,0,0,1,2.62-14.16A31,31,0,0,1,567,55.35a32.31,32.31,0,0,1,11.13-6.85,42.61,42.61,0,0,1,28.14,0,32.27,32.27,0,0,1,11.12,6.85,31.16,31.16,0,0,1,7.32,10.81,36.9,36.9,0,0,1,2.62,14.16,37,37,0,0,1-2.62,14.17,31,31,0,0,1-7.32,10.8,32,32,0,0,1-11.12,6.85,42.61,42.61,0,0,1-28.14,0A32,32,0,0,1,567,105.29a30.86,30.86,0,0,1-7.31-10.8A36.77,36.77,0,0,1,557.05,80.32Zm14.89,0a23.92,23.92,0,0,0,1.43,8.42,19.27,19.27,0,0,0,4.09,6.62,18.69,18.69,0,0,0,6.39,4.37,23,23,0,0,0,16.65,0,18.69,18.69,0,0,0,6.39-4.37A19.27,19.27,0,0,0,611,88.74,25.36,25.36,0,0,0,611,72a19.16,19.16,0,0,0-4.09-6.66,18.69,18.69,0,0,0-6.39-4.37,23,23,0,0,0-16.65,0,18.69,18.69,0,0,0-6.39,4.37A19.16,19.16,0,0,0,573.37,72,24,24,0,0,0,571.94,80.32Z"/><path class="cls-1" d="M687.63,63.68a10.24,10.24,0,0,0-4.73-3.27,17.13,17.13,0,0,0-5.66-1,15.2,15.2,0,0,0-3.22.36,12.56,12.56,0,0,0-3.12,1.15,6.8,6.8,0,0,0-2.4,2.07,5.26,5.26,0,0,0-.91,3.13,5.2,5.2,0,0,0,2.2,4.51,20.79,20.79,0,0,0,5.57,2.66c2.23.74,4.64,1.47,7.22,2.21a29.38,29.38,0,0,1,7.21,3.13A17.05,17.05,0,0,1,695.36,84c1.47,2.27,2.21,5.3,2.21,9.11a20.94,20.94,0,0,1-2,9.47,19.2,19.2,0,0,1-5.47,6.71,23.33,23.33,0,0,1-8,4,35.51,35.51,0,0,1-9.61,1.28,34.81,34.81,0,0,1-11.77-1.93,29.57,29.57,0,0,1-10.12-6.25l10.21-11.22a14.92,14.92,0,0,0,5.56,4.55,15.82,15.82,0,0,0,6.95,1.61,16.1,16.1,0,0,0,3.54-.41,11.79,11.79,0,0,0,3.22-1.24,7.11,7.11,0,0,0,2.3-2.12,5.29,5.29,0,0,0,.87-3A5.52,5.52,0,0,0,681,89.84a21.1,21.1,0,0,0-5.66-2.9q-3.4-1.18-7.36-2.39a33,33,0,0,1-7.35-3.21A17.71,17.71,0,0,1,654.94,76a15.29,15.29,0,0,1-2.25-8.74,19.52,19.52,0,0,1,2.07-9.19,20,20,0,0,1,5.51-6.62,24,24,0,0,1,8-4,32.51,32.51,0,0,1,9.29-1.34,36.31,36.31,0,0,1,10.67,1.57,24.6,24.6,0,0,1,9.28,5.24Z"/><path class="cls-1" d="M726.62,47.77H741V72.05h27.87V47.77h14.34v65.11H768.84V84.74H741v28.14H726.62Z"/><path class="cls-1" d="M814.63,47.77H829v65.11H814.63Z"/><path class="cls-2" d="M272.19,156.23a4.93,4.93,0,0,1-1.31,1.62,5.57,5.57,0,0,1-1.93,1,8.25,8.25,0,0,1-2.43.35,11.26,11.26,0,0,1-3.77-.68,11.83,11.83,0,0,1-3.37-1.86l1.3-1.84a11.2,11.2,0,0,0,2.92,1.64,8.63,8.63,0,0,0,3.06.57,4.25,4.25,0,0,0,2.57-.74,2.33,2.33,0,0,0,1-2v-.07a1.81,1.81,0,0,0-.35-1.1,3.22,3.22,0,0,0-.95-.82,7.17,7.17,0,0,0-1.39-.61q-.78-.27-1.62-.51c-.67-.2-1.34-.41-2-.65a8.17,8.17,0,0,1-1.83-.88,4.39,4.39,0,0,1-1.34-1.34,3.56,3.56,0,0,1-.52-2v-.07a4.67,4.67,0,0,1,.44-2,4.42,4.42,0,0,1,1.21-1.57,5.63,5.63,0,0,1,1.88-1,7.38,7.38,0,0,1,2.35-.35,10.54,10.54,0,0,1,3.24.52,11.89,11.89,0,0,1,3,1.38l-1.17,1.94a11.71,11.71,0,0,0-2.52-1.22,8,8,0,0,0-2.59-.45,3.83,3.83,0,0,0-2.44.72,2.19,2.19,0,0,0-.9,1.78v.07a1.64,1.64,0,0,0,.37,1.05,3.2,3.2,0,0,0,1,.79,9.34,9.34,0,0,0,1.41.6l1.68.53c.66.2,1.33.43,2,.67a8,8,0,0,1,1.79.94,4.55,4.55,0,0,1,1.29,1.37,3.76,3.76,0,0,1,.48,2V154A4.77,4.77,0,0,1,272.19,156.23Z"/><path class="cls-2" d="M310.76,153.73a8.93,8.93,0,0,1-1.89,2.89,8.79,8.79,0,0,1-2.87,1.95,9,9,0,0,1-3.6.72,8.77,8.77,0,0,1-3.58-.72,9.12,9.12,0,0,1-2.84-1.94,8.76,8.76,0,0,1-1.87-2.85,9.4,9.4,0,0,1,0-7,8.88,8.88,0,0,1,8.35-5.56,9,9,0,0,1,6.45,2.66,8.76,8.76,0,0,1,1.87,2.85,9.21,9.21,0,0,1,.67,3.48A9,9,0,0,1,310.76,153.73Zm-2.44-6.08a6.49,6.49,0,0,0-1.35-2.14,6.28,6.28,0,0,0-2-1.45,6,6,0,0,0-2.53-.54,6.23,6.23,0,0,0-2.58.52,5.6,5.6,0,0,0-2,1.43,6.75,6.75,0,0,0-1.29,2.13,7.3,7.3,0,0,0-.47,2.62,7,7,0,0,0,.49,2.63A6.46,6.46,0,0,0,297.9,155a6.52,6.52,0,0,0,2,1.44,6.48,6.48,0,0,0,5.11,0,6,6,0,0,0,2-1.41,6.61,6.61,0,0,0,1.3-2.12,7.24,7.24,0,0,0,.47-2.61A7,7,0,0,0,308.32,147.65Z"/><path class="cls-2" d="M342.14,141.68v2.21H336.7v15h-2.57v-15h-2.38v-2.24h2.38v-1.5a6.17,6.17,0,0,1,1.35-4.31,5,5,0,0,1,3.86-1.47,10,10,0,0,1,1.55.1,7.64,7.64,0,0,1,1.29.33V137c-.47-.13-.9-.24-1.27-.32a6.81,6.81,0,0,0-1.24-.11c-2,0-3,1.22-3,3.67v1.4Z"/><path class="cls-2" d="M366,154a2.66,2.66,0,0,0,.8,2.23,3.23,3.23,0,0,0,2.1.64,6.15,6.15,0,0,0,1.25-.13,6,6,0,0,0,1.26-.47v2.2A5.58,5.58,0,0,1,370,159a7.33,7.33,0,0,1-3.63-.08,4,4,0,0,1-1.55-.85,4.07,4.07,0,0,1-1-1.52,6.21,6.21,0,0,1-.37-2.24V143.89H361v-2.27h2.4v-5.21H366v5.21h5.47v2.27H366Z"/><path class="cls-2" d="M410.31,155.48l4.54-13.86h2.68L411.45,159h-2.24l-4.64-13.63L399.89,159h-2.27l-6.05-17.4h2.74l4.55,13.86,4.64-13.93h2.14Z"/><path class="cls-2" d="M441.66,144a14.91,14.91,0,0,0-2.46.92l-.77-2.11a17.23,17.23,0,0,1,2.91-1,13.17,13.17,0,0,1,3.37-.39,7.77,7.77,0,0,1,5.45,1.76,6.71,6.71,0,0,1,1.9,5.19v10.56h-2.47v-2.61a8.44,8.44,0,0,1-2.42,2.07,7.44,7.44,0,0,1-3.83.9,8.5,8.5,0,0,1-2.35-.33,6.26,6.26,0,0,1-2.07-1,5.3,5.3,0,0,1-1.47-1.69,4.77,4.77,0,0,1-.55-2.37,5.35,5.35,0,0,1,.53-2.42,4.82,4.82,0,0,1,1.52-1.75,7.19,7.19,0,0,1,2.34-1.07,11.18,11.18,0,0,1,3-.37,19,19,0,0,1,2.91.2,20.9,20.9,0,0,1,2.4.54v-.6a4.45,4.45,0,0,0-1.35-3.53,5.57,5.57,0,0,0-3.79-1.18A10,10,0,0,0,441.66,144Zm-.83,7.09a3.14,3.14,0,0,0-1.29,2.64,2.91,2.91,0,0,0,.35,1.47,3.39,3.39,0,0,0,.94,1.09,4.19,4.19,0,0,0,1.39.68,5.56,5.56,0,0,0,1.64.24,7.17,7.17,0,0,0,2.25-.35,6.14,6.14,0,0,0,1.83-1,4.56,4.56,0,0,0,1.23-1.47,4,4,0,0,0,.45-1.89v-1.67c-.64-.18-1.38-.34-2.21-.5a15.22,15.22,0,0,0-2.85-.23A6.21,6.21,0,0,0,440.83,151.1Z"/><path class="cls-2" d="M477.18,158.89h-2.57V141.62h2.57v4.51a9.07,9.07,0,0,1,1.17-2,8.15,8.15,0,0,1,1.6-1.56,6.85,6.85,0,0,1,2-1,7.18,7.18,0,0,1,2.31-.3v2.77H484a7.15,7.15,0,0,0-2.66.5,6.21,6.21,0,0,0-2.19,1.5,7.27,7.27,0,0,0-1.47,2.49,10.3,10.3,0,0,0-.53,3.43Z"/><path class="cls-2" d="M506.7,153.69a6.11,6.11,0,0,0,1.37,1.84,5.92,5.92,0,0,0,1.87,1.14,6.37,6.37,0,0,0,2.18.38,6.52,6.52,0,0,0,3.08-.67,8.85,8.85,0,0,0,2.36-1.77l1.6,1.44a10.6,10.6,0,0,1-3,2.35,9.52,9.52,0,0,1-7.48.24A8.46,8.46,0,0,1,506,156.8a8.76,8.76,0,0,1-1.87-2.86,9.52,9.52,0,0,1-.69-3.67,9.77,9.77,0,0,1,.62-3.52,8.76,8.76,0,0,1,1.72-2.88,8,8,0,0,1,2.62-1.92,8.33,8.33,0,0,1,6.73,0,7.54,7.54,0,0,1,2.54,1.95,8.68,8.68,0,0,1,1.57,2.91,11.81,11.81,0,0,1,.53,3.57v.37a3.34,3.34,0,0,1,0,.43H506A7.23,7.23,0,0,0,506.7,153.69Zm10.39-4.39a8.86,8.86,0,0,0-.48-2.24,6,6,0,0,0-1.06-1.87,5.24,5.24,0,0,0-1.66-1.28,5,5,0,0,0-2.28-.49,4.87,4.87,0,0,0-2.09.45,5.55,5.55,0,0,0-1.69,1.24,6.42,6.42,0,0,0-1.2,1.85,7.66,7.66,0,0,0-.59,2.34Z"/><path class="cls-2" d="M570.63,153.69a5.89,5.89,0,0,0,3.24,3,6.35,6.35,0,0,0,2.17.38,6.53,6.53,0,0,0,3.09-.67,8.85,8.85,0,0,0,2.36-1.77l1.6,1.44a10.6,10.6,0,0,1-3,2.35,8.8,8.8,0,0,1-4.14.89,8.68,8.68,0,0,1-3.34-.65,8.36,8.36,0,0,1-2.75-1.84,8.76,8.76,0,0,1-1.87-2.86,9.52,9.52,0,0,1-.69-3.67,10,10,0,0,1,.61-3.52,9.12,9.12,0,0,1,1.72-2.88,8.12,8.12,0,0,1,2.63-1.92,8.33,8.33,0,0,1,6.73,0,7.5,7.5,0,0,1,2.53,1.95,8.51,8.51,0,0,1,1.57,2.91,11.51,11.51,0,0,1,.54,3.57v.37a2.22,2.22,0,0,1,0,.43H570A7.24,7.24,0,0,0,570.63,153.69ZM581,149.3a9.31,9.31,0,0,0-.48-2.24,6.23,6.23,0,0,0-1.06-1.87,5.24,5.24,0,0,0-1.66-1.28,5,5,0,0,0-2.28-.49,4.87,4.87,0,0,0-2.09.45,5.43,5.43,0,0,0-1.69,1.24,6.42,6.42,0,0,0-1.2,1.85,8,8,0,0,0-.6,2.34Z"/><path class="cls-2" d="M607.81,158.89h-2.57V141.62h2.57v3a8,8,0,0,1,2.27-2.38,6.17,6.17,0,0,1,3.64-1,7.38,7.38,0,0,1,2.79.5,5.93,5.93,0,0,1,2.07,1.42,6.16,6.16,0,0,1,1.3,2.19,8.35,8.35,0,0,1,.45,2.8v10.73h-2.57V148.8a5.59,5.59,0,0,0-1.23-3.81,4.51,4.51,0,0,0-3.55-1.4,5.57,5.57,0,0,0-2.05.38,4.8,4.8,0,0,0-1.65,1.11,4.91,4.91,0,0,0-1.09,1.72,6.19,6.19,0,0,0-.38,2.2Z"/><path class="cls-2" d="M658.69,159.55a7,7,0,0,1-1.77,2.63,7.49,7.49,0,0,1-2.77,1.58,11.42,11.42,0,0,1-3.62.54,14.22,14.22,0,0,1-4.15-.6,13.24,13.24,0,0,1-3.7-1.81l1.17-2a12.06,12.06,0,0,0,3.14,1.63,10.53,10.53,0,0,0,3.5.57,6.52,6.52,0,0,0,4.58-1.55,5.93,5.93,0,0,0,1.7-4.59v-2a11,11,0,0,1-2.77,2.57,7.2,7.2,0,0,1-4,1.07,8.37,8.37,0,0,1-3-.55,7.8,7.8,0,0,1-4.41-4.16,8.8,8.8,0,0,1,0-6.83,7.87,7.87,0,0,1,1.82-2.57,8.38,8.38,0,0,1,5.61-2.19,8.65,8.65,0,0,1,2.22.28,7.81,7.81,0,0,1,1.84.76,8.08,8.08,0,0,1,1.49,1.1,12.42,12.42,0,0,1,1.2,1.33v-3.1h2.57v14.26A10,10,0,0,1,658.69,159.55ZM656.3,147a5.76,5.76,0,0,0-1.42-1.85,6.31,6.31,0,0,0-2-1.19,6.72,6.72,0,0,0-2.37-.42,6.81,6.81,0,0,0-2.32.4,5.61,5.61,0,0,0-1.9,1.17A5.35,5.35,0,0,0,645,147a6.07,6.07,0,0,0-.47,2.42,5.76,5.76,0,0,0,3.69,5.49,6.33,6.33,0,0,0,2.29.42,6.72,6.72,0,0,0,2.37-.42,6.47,6.47,0,0,0,2-1.18,5.8,5.8,0,0,0,1.42-1.86,5.69,5.69,0,0,0,0-4.84Z"/><path class="cls-2" d="M682.19,137.84V135h2.94v2.83Zm.17,21V141.62h2.57v17.27Z"/><path class="cls-2" d="M710.55,158.89H708V141.62h2.58v3a7.91,7.91,0,0,1,2.27-2.38,6.17,6.17,0,0,1,3.64-1,7.42,7.42,0,0,1,2.79.5,5.93,5.93,0,0,1,2.07,1.42,6.31,6.31,0,0,1,1.3,2.19,8.35,8.35,0,0,1,.45,2.8v10.73H720.5V148.8a5.55,5.55,0,0,0-1.24-3.81,4.47,4.47,0,0,0-3.54-1.4,5.54,5.54,0,0,0-2.05.38,4.71,4.71,0,0,0-1.65,1.11,4.91,4.91,0,0,0-1.09,1.72,6,6,0,0,0-.38,2.2Z"/><path class="cls-2" d="M747.85,153.69a6.11,6.11,0,0,0,1.37,1.84,5.92,5.92,0,0,0,1.87,1.14,6.37,6.37,0,0,0,2.18.38,6.52,6.52,0,0,0,3.08-.67,8.85,8.85,0,0,0,2.36-1.77l1.6,1.44a10.6,10.6,0,0,1-3,2.35,9.52,9.52,0,0,1-7.48.24,8.46,8.46,0,0,1-2.75-1.84,8.76,8.76,0,0,1-1.87-2.86,9.52,9.52,0,0,1-.69-3.67,9.77,9.77,0,0,1,.62-3.52,8.76,8.76,0,0,1,1.72-2.88,8,8,0,0,1,2.62-1.92,8.33,8.33,0,0,1,6.73,0,7.54,7.54,0,0,1,2.54,1.95,8.68,8.68,0,0,1,1.57,2.91,11.81,11.81,0,0,1,.53,3.57v.37a3.34,3.34,0,0,1,0,.43H747.19A7.23,7.23,0,0,0,747.85,153.69Zm10.39-4.39a9.31,9.31,0,0,0-.48-2.24,6,6,0,0,0-1.06-1.87,5.24,5.24,0,0,0-1.66-1.28,5,5,0,0,0-2.28-.49,4.87,4.87,0,0,0-2.09.45,5.55,5.55,0,0,0-1.69,1.24,6.42,6.42,0,0,0-1.2,1.85,7.66,7.66,0,0,0-.59,2.34Z"/><path class="cls-2" d="M784.69,153.69a6.11,6.11,0,0,0,1.37,1.84,5.92,5.92,0,0,0,1.87,1.14,6.37,6.37,0,0,0,2.18.38,6.52,6.52,0,0,0,3.08-.67,8.85,8.85,0,0,0,2.36-1.77l1.6,1.44a10.6,10.6,0,0,1-3,2.35,9.52,9.52,0,0,1-7.48.24A8.46,8.46,0,0,1,784,156.8a8.76,8.76,0,0,1-1.87-2.86,9.52,9.52,0,0,1-.69-3.67,9.77,9.77,0,0,1,.62-3.52,8.76,8.76,0,0,1,1.72-2.88,8,8,0,0,1,2.62-1.92,8.33,8.33,0,0,1,6.73,0,7.54,7.54,0,0,1,2.54,1.95,8.68,8.68,0,0,1,1.57,2.91,11.81,11.81,0,0,1,.53,3.57v.37a3.34,3.34,0,0,1,0,.43H784A7,7,0,0,0,784.69,153.69Zm10.39-4.39a9.31,9.31,0,0,0-.48-2.24,6,6,0,0,0-1.06-1.87,5.24,5.24,0,0,0-1.66-1.28,5,5,0,0,0-2.28-.49,4.87,4.87,0,0,0-2.09.45,5.55,5.55,0,0,0-1.69,1.24,6.42,6.42,0,0,0-1.2,1.85,7.66,7.66,0,0,0-.59,2.34Z"/><path class="cls-2" d="M821.87,158.89H819.3V141.62h2.57v4.51a9.07,9.07,0,0,1,1.17-2,8.15,8.15,0,0,1,1.6-1.56,6.85,6.85,0,0,1,2-1,7.18,7.18,0,0,1,2.31-.3v2.77h-.2a7.19,7.19,0,0,0-2.66.5,6.3,6.3,0,0,0-2.19,1.5,7.27,7.27,0,0,0-1.47,2.49,10.3,10.3,0,0,0-.53,3.43Z"/><path class="cls-3" d="M76.64,70.55q-5.44,9-9.91,13.08l-6-7.41A58.89,58.89,0,0,0,69,64.85a81.45,81.45,0,0,0,6.93-14.49H63.47v-9.6H76.64V31.65q-7,1.16-11.74,1.52l-1.74-8.62a140.16,140.16,0,0,0,16-2.7A82.83,82.83,0,0,0,93.93,17.4l4.64,8.71a74.8,74.8,0,0,1-10.72,3.26V40.76h8.71v9.6H87.85v1.92q3.23,5,10.9,11.61l-5,8.67a70.83,70.83,0,0,1-5.9-6.43V98.91H76.64Zm45.07.31a61.4,61.4,0,0,1-25,27.24l-6.21-8.62q10.23-5.76,17-17.59a49.72,49.72,0,0,0,6.81-25.19V18.16h12.28V46.07a43.25,43.25,0,0,0,6.61,23.18,71.68,71.68,0,0,0,16.44,18.49L141,97.17Q128.81,87.26,121.71,70.86Zm-10.23-39.7a154.91,154.91,0,0,1-5.31,31.53l-10.5-2.28a173.4,173.4,0,0,0,5-30ZM148.15,30q-1.67,8.36-4.6,18.83T139,62l-9.56-2.5q2.76-10.94,6.92-31.3Z"/><rect class="cls-4" x="82.96" y="168.77" width="44.26" height="11.52"/><path class="cls-5" d="M105.2,0A105.21,105.21,0,1,0,210.41,105.2,105.2,105.2,0,0,0,105.2,0ZM140,194.18H127.22v-3.57H83v3.3H70.46v-35H140Zm6.83-60.11H111.46v8.62h32.29v10.58H66.48V142.69h31.8v-8.62H63.63V123.39H98.28V113.7h13.18v9.69h35.32ZM105.2,105.2a95.31,95.31,0,0,0-80.44,44.14,93.74,93.74,0,1,1,160.89,0A95.31,95.31,0,0,0,105.2,105.2Z"/></g></g></svg>